<?xml version="1.0" encoding="UTF-8"?>
<svg id="Layer_1" xmlns="http://www.w3.org/2000/svg" version="1.1" viewBox="0 0 485.95 317.48">
  <!-- Generator: Adobe Illustrator 29.5.1, SVG Export Plug-In . SVG Version: 2.1.0 Build 141)  -->
  <defs>
    <style>
      .st0 {
        fill: #170efb;
      }
    </style>
  </defs>
  <polygon class="st0" points="372.22 87.59 316.91 223.76 349.01 249.45 417.92 79.8 372.22 87.59"/>
  <path class="st0" d="M323.2,180.35l13.98-34.11-9.17,1.56,9.14-22.51h0l13.98-34.11-109.47,18.65h0s-.78,1.93-.78,1.93l-13.06,32.16h0l-32.39,79.83,32.11,25.69,21.59-53.17-44.25,4.24,8.98-1.53h0l54.6-9.31-13.84,34.08,32.11,25.69,27.44-67.56,9.03-1.54h0ZM264.44,158.63l9.14-22.51,17.88-3.05-9.14,22.51-17.88,3.05Z"/>
  <polygon class="st0" points="163.21 122.27 81.93 136.12 81.92 136.13 68.08 170.22 149.36 156.36 163.21 122.27"/>
  <polygon class="st0" points="240.81 68.03 145.45 84.29 132.5 116.18 182.16 107.71 148.86 189.68 118.5 165.39 68.08 170.22 167.12 249.45 240.81 68.03"/>
</svg>