<svg width="393" height="851" viewBox="0 0 393 851" fill="none" xmlns="http://www.w3.org/2000/svg">
<rect width="393" height="851" rx="44" fill="#F4F6F8"/>
<g clip-path="url(#clip0_236_799)">
<g filter="url(#filter0_d_236_799)">
<rect width="393" height="100" fill="white"/>
<path d="M9.61035 82.0068C9.61589 81.8132 9.65462 81.6361 9.72656 81.4756C9.7985 81.3151 9.90918 81.1602 10.0586 81.0107L18.376 72.959C18.6139 72.721 18.9072 72.6021 19.2559 72.6021C19.4883 72.6021 19.6986 72.6574 19.8867 72.7681C20.0804 72.8787 20.2326 73.0282 20.3433 73.2163C20.4595 73.4045 20.5176 73.6147 20.5176 73.8472C20.5176 74.1903 20.3875 74.4919 20.1274 74.752L12.6069 81.9985L20.1274 89.2534C20.3875 89.519 20.5176 89.8206 20.5176 90.1582C20.5176 90.3962 20.4595 90.6092 20.3433 90.7974C20.2326 90.9855 20.0804 91.1349 19.8867 91.2456C19.6986 91.3618 19.4883 91.4199 19.2559 91.4199C18.9072 91.4199 18.6139 91.2982 18.376 91.0547L10.0586 83.0029C9.90365 82.8535 9.7902 82.6986 9.71826 82.5381C9.64632 82.3721 9.61035 82.195 9.61035 82.0068Z" fill="#0528F2"/>
<path d="M33.8687 75.4702C34.0347 75.6362 34.1177 75.841 34.1177 76.0845C34.1177 76.328 34.0347 76.5355 33.8687 76.707C33.7026 76.873 33.4979 76.9561 33.2544 76.9561C33.0109 76.9561 32.8034 76.873 32.6318 76.707C32.4658 76.5355 32.3828 76.328 32.3828 76.0845C32.3828 75.841 32.4658 75.6362 32.6318 75.4702C32.8034 75.3042 33.0109 75.2212 33.2544 75.2212C33.4979 75.2212 33.7026 75.3042 33.8687 75.4702ZM31.6191 75.4702C31.7907 75.6362 31.8765 75.841 31.8765 76.0845C31.8765 76.328 31.7907 76.5355 31.6191 76.707C31.4531 76.873 31.2484 76.9561 31.0049 76.9561C30.7614 76.9561 30.5566 76.873 30.3906 76.707C30.2246 76.5355 30.1416 76.328 30.1416 76.0845C30.1416 75.841 30.2246 75.6362 30.3906 75.4702C30.5566 75.3042 30.7614 75.2212 31.0049 75.2212C31.2484 75.2212 31.4531 75.3042 31.6191 75.4702ZM36.2593 86.6597L35.9189 87C35.2549 87 34.7485 86.8617 34.3999 86.585C34.0513 86.3027 33.8161 85.8407 33.6943 85.1987C33.318 86.1616 32.5129 86.6431 31.2788 86.6431C30.3879 86.6431 29.6906 86.4023 29.187 85.9209C28.689 85.4395 28.4399 84.7726 28.4399 83.9204C28.4399 83.284 28.6336 82.7168 29.021 82.2188C29.4139 81.7207 30.0254 81.2586 30.8555 80.8325L33.5449 79.438V78.1099H34.7319V83.8208C34.7319 84.4849 34.8481 84.9552 35.0806 85.2319C35.313 85.5031 35.7059 85.6387 36.2593 85.6387V86.6597ZM29.6353 83.9204C29.6353 84.3465 29.7791 84.6813 30.0669 84.9248C30.3602 85.1628 30.7642 85.2817 31.2788 85.2817C32.0591 85.2817 32.6318 85.1323 32.9971 84.8335C33.3623 84.5291 33.5449 84.0505 33.5449 83.3975V80.6084L31.5029 81.6792C30.861 82.0057 30.3879 82.3488 30.0835 82.7085C29.7847 83.0627 29.6353 83.4666 29.6353 83.9204ZM40.9477 86.6597L40.6073 87C39.8713 87 39.2958 86.87 38.8808 86.6099C38.4713 86.3498 38.2029 85.9458 38.0756 85.3979C37.8376 86.466 36.9882 87 35.5272 87V85.979L35.8676 85.6387C36.5648 85.6387 37.0574 85.4671 37.3451 85.124C37.6384 84.7809 37.7851 84.1888 37.7851 83.3477V73.8599H38.9804V83.3477C38.9804 83.9951 39.0412 84.4821 39.163 84.8086C39.2847 85.1296 39.4784 85.3481 39.744 85.4644C40.0097 85.5806 40.4109 85.6387 40.9477 85.6387V86.6597ZM53.9285 87C53.2534 87 52.7028 86.8589 52.2767 86.5767C51.8506 86.2944 51.5628 85.896 51.4134 85.3813C51.3138 85.9735 51.0896 86.4162 50.741 86.7095C50.3979 87.0028 49.9524 87.1494 49.4046 87.1494C48.8512 87.1494 48.3753 86.9972 47.9769 86.6929C47.5784 86.3885 47.3128 85.9652 47.18 85.4229C46.9918 86.5739 46.3222 87.1494 45.1712 87.1494C44.5293 87.1494 44.0008 86.9972 43.5857 86.6929C43.1707 86.383 42.8995 85.9458 42.7723 85.3813C42.6505 85.9347 42.3794 86.3442 41.9588 86.6099C41.5382 86.87 40.9544 87 40.2073 87V85.979L40.5477 85.6387C41.1619 85.6387 41.6351 85.4782 41.9671 85.1572C42.2991 84.8363 42.4651 84.3465 42.4651 83.688L42.4485 82.7832H43.6438L43.6604 83.688C43.6604 84.4074 43.796 84.9386 44.0672 85.2817C44.3439 85.6248 44.77 85.7964 45.3455 85.7964C45.8104 85.7964 46.1811 85.6221 46.4578 85.2734C46.7345 84.9193 46.8729 84.3908 46.8729 83.688L46.8562 82.7832H48.0433L48.0599 83.688C48.0599 84.3853 48.201 84.911 48.4832 85.2651C48.771 85.6193 49.1417 85.7964 49.5955 85.7964C50.077 85.7964 50.4477 85.6138 50.7078 85.2485C50.9734 84.8778 51.1062 84.3576 51.1062 83.688V82.1855H52.2933V83.688C52.2933 84.3576 52.451 84.8501 52.7664 85.1655C53.0874 85.481 53.5882 85.6387 54.2688 85.6387V86.6597L53.9285 87ZM54.0266 87H53.5202V85.979L53.8605 85.6387C54.2701 85.6387 54.5965 85.6055 54.84 85.5391C55.0835 85.4671 55.2827 85.3288 55.4377 85.124C55.5926 84.9193 55.6978 84.6536 55.7531 84.3271C55.8085 84.0007 55.8361 83.5607 55.8361 83.0073V73.8599H57.0231V83.3477C57.0231 84.5983 56.7797 85.5197 56.2927 86.1118C55.8057 86.7039 55.0503 87 54.0266 87ZM60.5245 87H59.3375V73.8599H60.5245V87Z" fill="#0528F2"/>
<path d="M292.73 86C291.181 86 290.285 85.3885 290.041 84.1655C289.587 85.4992 287.722 86.166 284.446 86.166C282.211 86.166 280.592 85.8285 279.59 85.1533C278.589 84.4782 278.088 83.388 278.088 81.8828C278.088 81.0583 278.185 80.3001 278.378 79.6084H280.08C279.909 80.4108 279.823 81.0444 279.823 81.5093C279.823 82.4445 280.194 83.1196 280.935 83.5347C281.677 83.9442 282.894 84.1489 284.587 84.1489C285.429 84.1489 286.126 84.1296 286.679 84.0908C287.238 84.0521 287.72 83.9884 288.124 83.8999C288.528 83.8058 288.837 83.6758 289.053 83.5098C289.269 83.3382 289.424 83.1362 289.518 82.9038C289.618 82.6714 289.667 82.3781 289.667 82.0239V80.2061H291.386V82.0239C291.386 82.8374 291.505 83.3742 291.743 83.6343C291.986 83.8944 292.457 84.0244 293.154 84.0244V85.5767L292.73 86ZM285.774 88.291C285.774 88.5898 285.678 88.8361 285.484 89.0298C285.29 89.229 285.047 89.3286 284.753 89.3286C284.46 89.3286 284.214 89.229 284.015 89.0298C283.815 88.8361 283.716 88.5898 283.716 88.291C283.716 88.0033 283.815 87.7625 284.015 87.5688C284.214 87.3752 284.46 87.2783 284.753 87.2783C285.047 87.2783 285.29 87.3752 285.484 87.5688C285.678 87.7625 285.774 88.0033 285.774 88.291ZM298.383 85.5767L297.96 86C296.383 86 295.475 85.394 295.237 84.1821C294.994 85.394 294.155 86 292.722 86V84.4395L293.146 84.0244C293.776 84.0244 294.219 83.8722 294.474 83.5679C294.734 83.2635 294.864 82.7489 294.864 82.0239V72.9927H296.648V82.0239C296.648 82.45 296.673 82.7904 296.723 83.0449C296.773 83.2939 296.867 83.4959 297.005 83.6509C297.149 83.8003 297.324 83.8999 297.528 83.9497C297.739 83.9995 298.024 84.0244 298.383 84.0244V85.5767ZM302.542 86H297.952V84.4561L298.375 84.0244H299.512C299.673 83.6702 299.855 83.3078 300.06 82.937V72.9927H301.845V80.5298C303.129 79.2459 304.534 78.604 306.062 78.604C306.632 78.604 307.146 78.7036 307.605 78.9028C308.07 79.0965 308.447 79.3594 308.734 79.6914C309.028 80.0179 309.252 80.3914 309.407 80.812C309.567 81.2271 309.647 81.6642 309.647 82.1235C309.647 82.6769 309.545 83.1694 309.34 83.6011C309.706 83.8833 310.295 84.0244 311.108 84.0244V85.5601L310.685 86C309.6 86 308.79 85.6099 308.253 84.8296C307.102 85.6099 305.198 86 302.542 86ZM305.97 80.5962C305.002 80.5962 304.086 80.9006 303.223 81.5093C302.359 82.1125 301.598 82.9508 300.94 84.0244H302.965C304.803 84.0244 306.125 83.8778 306.933 83.5845C307.747 83.2912 308.153 82.8153 308.153 82.1567C308.153 81.7583 307.96 81.3986 307.572 81.0776C307.19 80.7567 306.656 80.5962 305.97 80.5962ZM311.382 86H310.685V84.4395L311.108 84.0244C311.806 84.0244 312.268 83.875 312.495 83.5762C312.727 83.2773 312.843 82.6742 312.843 81.7666V72.9927H314.645V82.0239C314.645 83.3853 314.379 84.3896 313.848 85.0371C313.316 85.679 312.495 86 311.382 86ZM318.795 86H317.01V72.9927H318.795V86ZM335.04 83.792C335.04 85.5684 334.591 86.9242 333.695 87.8594C332.804 88.7946 331.512 89.2622 329.818 89.2622C328.097 89.2622 326.833 88.8499 326.025 88.0254C325.222 87.2064 324.827 86.0111 324.838 84.4395C324.854 83.6813 324.946 82.8706 325.112 82.0073H326.813C326.659 82.771 326.573 83.4378 326.556 84.0078C326.54 85.0924 326.783 85.9032 327.287 86.4399C327.796 86.9767 328.64 87.2451 329.818 87.2451C331.025 87.2451 331.899 86.9795 332.441 86.4482C332.984 85.9225 333.255 85.0316 333.255 83.7754V72.9927H335.04V83.792ZM343.963 86H343.672C343.34 88.6729 341.896 90.0093 339.339 90.0093C338.531 90.0093 337.737 89.9207 336.957 89.7437V87.8013C337.732 88.0171 338.526 88.125 339.339 88.125C340.23 88.125 340.903 87.9618 341.356 87.6353C341.816 87.3143 342.112 86.7692 342.245 86H340.717C339.389 86 338.393 85.7233 337.729 85.1699C337.065 84.611 336.733 83.828 336.733 82.8208C336.733 82.1235 336.882 81.4705 337.181 80.8618C337.486 80.2531 337.906 79.7661 338.443 79.4009C338.985 79.0301 339.583 78.8447 340.236 78.8447C341.237 78.8447 342.054 79.2957 342.685 80.1978C343.321 81.0942 343.672 82.3698 343.739 84.0244H344.386V85.5767L343.963 86ZM340.593 84.0244H342.328C342.256 82.9564 342.012 82.1429 341.597 81.584C341.188 81.0251 340.64 80.7456 339.954 80.7456C339.428 80.7456 339.005 80.9338 338.684 81.3101C338.363 81.6864 338.202 82.1263 338.202 82.6299C338.202 83.1279 338.385 83.4849 338.75 83.7007C339.121 83.9165 339.735 84.0244 340.593 84.0244ZM349.616 85.5767L349.192 86C347.637 86 346.741 85.3996 346.503 84.1987C346.282 85.3996 345.438 86 343.971 86V84.4395L344.395 84.0244C345.031 84.0244 345.479 83.8722 345.739 83.5679C345.999 83.2635 346.129 82.7489 346.129 82.0239V80.2061H347.864V82.0239C347.864 82.5828 347.917 83.0034 348.022 83.2856C348.133 83.5679 348.307 83.7616 348.545 83.8667C348.783 83.9718 349.14 84.0244 349.616 84.0244V85.5767ZM347.707 88.2412C347.707 88.529 347.607 88.7697 347.408 88.9634C347.214 89.1626 346.973 89.2622 346.686 89.2622C346.387 89.2622 346.14 89.1654 345.947 88.9717C345.753 88.778 345.656 88.5345 345.656 88.2412C345.656 87.9424 345.753 87.6934 345.947 87.4941C346.14 87.3005 346.387 87.2036 346.686 87.2036C346.979 87.2036 347.222 87.3005 347.416 87.4941C347.61 87.6934 347.707 87.9424 347.707 88.2412ZM355.542 74.0137C355.542 74.3125 355.443 74.5588 355.244 74.7524C355.05 74.9406 354.804 75.0347 354.505 75.0347C354.212 75.0347 353.968 74.9406 353.774 74.7524C353.581 74.5588 353.484 74.3125 353.484 74.0137C353.484 73.7259 353.581 73.4852 353.774 73.2915C353.974 73.0923 354.217 72.9927 354.505 72.9927C354.804 72.9927 355.05 73.0895 355.244 73.2832C355.443 73.4769 355.542 73.7204 355.542 74.0137ZM353.011 74.0137C353.011 74.3125 352.914 74.5588 352.72 74.7524C352.532 74.9406 352.289 75.0347 351.99 75.0347C351.696 75.0347 351.453 74.9406 351.259 74.7524C351.066 74.5588 350.969 74.3125 350.969 74.0137C350.969 73.7259 351.066 73.4852 351.259 73.2915C351.453 73.0923 351.696 72.9927 351.99 72.9927C352.289 72.9927 352.532 73.0895 352.72 73.2832C352.914 73.4769 353.011 73.7204 353.011 74.0137ZM352.347 86H349.184V84.4395L349.607 84.0244H352.413C352.828 84.0244 353.16 84.0216 353.409 84.0161C353.658 84.005 353.907 83.9829 354.156 83.9497C354.411 83.9165 354.604 83.8695 354.737 83.8086C354.876 83.7477 355.003 83.6647 355.119 83.5596C355.241 83.4489 355.329 83.3188 355.385 83.1694C355.44 83.0145 355.482 82.8236 355.509 82.5967C355 82.7793 354.292 82.8706 353.384 82.8706C352.333 82.8706 351.497 82.6077 350.877 82.082C350.258 81.5563 349.948 80.8341 349.948 79.9155C349.948 79.257 350.097 78.6372 350.396 78.0562C350.7 77.4696 351.11 77.002 351.625 76.6533C352.145 76.2992 352.701 76.1221 353.293 76.1221C354.4 76.1221 355.288 76.6118 355.958 77.5913C356.633 78.5653 356.97 79.8823 356.97 81.5425C356.97 82.1401 356.937 82.6603 356.871 83.103C356.804 83.5457 356.694 83.9359 356.539 84.2734C356.384 84.6055 356.19 84.8822 355.958 85.1035C355.731 85.3193 355.44 85.4964 355.086 85.6348C354.732 85.7676 354.336 85.8617 353.899 85.917C353.462 85.9723 352.944 86 352.347 86ZM351.409 79.8325C351.409 80.2863 351.589 80.6211 351.948 80.8369C352.313 81.0472 352.809 81.1523 353.434 81.1523C354.225 81.1523 354.923 81.0859 355.526 80.9531C355.432 80.0456 355.169 79.3345 354.737 78.8198C354.306 78.3052 353.774 78.0479 353.144 78.0479C352.634 78.0479 352.217 78.2194 351.89 78.5625C351.569 78.9001 351.409 79.3234 351.409 79.8325Z" fill="black"/>
<path d="M371.337 89.6812C370.446 89.6812 369.774 89.4515 369.32 88.9922C368.866 88.5329 368.639 87.855 368.639 86.9585V74.4409C368.639 73.55 368.866 72.8748 369.32 72.4155C369.774 71.9507 370.446 71.7183 371.337 71.7183H380.177C381.068 71.7183 381.741 71.9479 382.194 72.4072C382.648 72.8665 382.875 73.5444 382.875 74.4409V83.3477C382.659 83.0654 382.413 82.8164 382.136 82.6006C381.865 82.3792 381.569 82.1994 381.248 82.061V74.5405C381.248 74.1587 381.143 73.8654 380.933 73.6606C380.728 73.4504 380.432 73.3452 380.044 73.3452H371.478C371.074 73.3452 370.772 73.4504 370.573 73.6606C370.374 73.8654 370.274 74.1587 370.274 74.5405V86.8589C370.274 87.2407 370.374 87.534 370.573 87.7388C370.772 87.9491 371.074 88.0542 371.478 88.0542H375.28C375.424 88.3752 375.604 88.674 375.819 88.9507C376.041 89.2274 376.295 89.4709 376.583 89.6812H371.337ZM372.723 76.7236C372.568 76.7236 372.441 76.6711 372.341 76.5659C372.242 76.4608 372.192 76.3363 372.192 76.1924C372.192 76.0485 372.242 75.9268 372.341 75.8271C372.441 75.7275 372.568 75.6777 372.723 75.6777H378.799C378.949 75.6777 379.073 75.7275 379.173 75.8271C379.272 75.9268 379.322 76.0485 379.322 76.1924C379.322 76.3363 379.272 76.4608 379.173 76.5659C379.073 76.6711 378.949 76.7236 378.799 76.7236H372.723ZM372.723 79.5542C372.568 79.5542 372.441 79.5044 372.341 79.4048C372.242 79.2996 372.192 79.1724 372.192 79.0229C372.192 78.8791 372.242 78.7573 372.341 78.6577C372.441 78.5581 372.568 78.5083 372.723 78.5083H378.799C378.949 78.5083 379.073 78.5581 379.173 78.6577C379.272 78.7573 379.322 78.8791 379.322 79.0229C379.322 79.1724 379.272 79.2996 379.173 79.4048C379.073 79.5044 378.949 79.5542 378.799 79.5542H372.723ZM379.206 89.3823C378.592 89.3823 378.027 89.2301 377.513 88.9258C376.998 88.6214 376.589 88.2119 376.284 87.6973C375.98 87.1826 375.828 86.6154 375.828 85.9956C375.828 85.3758 375.98 84.8114 376.284 84.3022C376.589 83.7931 376.998 83.3864 377.513 83.082C378.027 82.7721 378.592 82.6172 379.206 82.6172C379.826 82.6172 380.39 82.7721 380.899 83.082C381.409 83.3864 381.815 83.7931 382.12 84.3022C382.43 84.8114 382.584 85.3758 382.584 85.9956C382.584 86.6154 382.43 87.1826 382.12 87.6973C381.815 88.2119 381.409 88.6214 380.899 88.9258C380.39 89.2301 379.826 89.3823 379.206 89.3823ZM379.206 88.1621C379.599 88.1621 379.959 88.0625 380.285 87.8633C380.612 87.6696 380.872 87.4095 381.065 87.083C381.265 86.7565 381.364 86.394 381.364 85.9956C381.364 85.6027 381.265 85.2458 381.065 84.9248C380.872 84.5983 380.612 84.3382 380.285 84.1445C379.959 83.9453 379.599 83.8457 379.206 83.8457C378.813 83.8457 378.453 83.9453 378.127 84.1445C377.8 84.3382 377.538 84.5983 377.338 84.9248C377.145 85.2458 377.048 85.6027 377.048 85.9956C377.048 86.394 377.145 86.7565 377.338 87.083C377.538 87.4095 377.8 87.6696 378.127 87.8633C378.453 88.0625 378.813 88.1621 379.206 88.1621ZM383.481 91.0923C383.249 91.0923 383.041 91.0037 382.858 90.8267L380.717 88.7017L381.854 87.606L383.987 89.7476C384.065 89.825 384.126 89.9108 384.17 90.0049C384.214 90.1045 384.236 90.2041 384.236 90.3037C384.236 90.5361 384.164 90.7243 384.021 90.8682C383.877 91.0176 383.697 91.0923 383.481 91.0923Z" fill="#0528F2"/>
</g>
<rect x="177" y="295" width="39" height="39" rx="19.5" fill="#0528F2"/>
<path d="M206 305.5L196.063 307.203L194.712 310.543L199.887 309.657L196.417 318.241L193.253 315.696L188 316.201L198.321 324.5L206 305.5ZM196.471 314.751L188 316.201L189.442 312.632L197.913 311.18L196.471 314.75V314.751Z" fill="white"/>
<circle cx="196.5" cy="314" r="63" stroke="#999999" stroke-opacity="0.2" stroke-width="5"/>
<mask id="path-11-inside-1_236_799" fill="white">
<path d="M253.486 346.294C260.215 334.418 263.067 320.737 261.642 307.162L258.385 307.504C259.739 320.4 257.03 333.397 250.636 344.679L253.486 346.294Z"/>
</mask>
<path d="M253.486 346.294C260.215 334.418 263.067 320.737 261.642 307.162L258.385 307.504C259.739 320.4 257.03 333.397 250.636 344.679L253.486 346.294Z" stroke="#0528F2" stroke-width="10" mask="url(#path-11-inside-1_236_799)"/>
<path d="M159.014 425.299C156.048 425.299 153.685 424.303 151.925 422.311C150.165 420.307 149.285 417.601 149.285 414.192V413.063C149.285 409.632 150.171 406.915 151.941 404.912C153.712 402.909 156.07 401.907 159.014 401.907C161.969 401.907 164.321 402.898 166.069 404.879C167.829 406.86 168.709 409.555 168.709 412.964V414.093C168.709 417.535 167.846 420.263 166.119 422.277C164.393 424.292 162.024 425.299 159.014 425.299ZM159.08 422.012C162.688 422.012 164.492 419.383 164.492 414.126V412.964C164.492 410.507 164.016 408.592 163.064 407.22C162.124 405.836 160.773 405.145 159.014 405.145C157.243 405.145 155.882 405.825 154.93 407.187C153.978 408.537 153.502 410.485 153.502 413.03V414.159C153.502 416.727 153.989 418.68 154.963 420.02C155.937 421.348 157.309 422.012 159.08 422.012ZM179.849 425.299C177.237 425.299 175.239 424.679 173.855 423.439C172.483 422.2 171.719 420.545 171.564 418.476H175.466C175.676 419.671 176.091 420.578 176.711 421.198C177.342 421.807 178.366 422.111 179.782 422.111C181.144 422.111 182.201 421.691 182.953 420.85C183.717 420.008 184.099 418.863 184.099 417.413C184.099 416.019 183.711 414.917 182.937 414.109C182.162 413.301 181.11 412.897 179.782 412.897C177.724 412.897 176.091 413.556 174.885 414.873H172.776L172.959 402.223H186.987V405.477H176.18L176.146 411.735C177.32 410.474 178.985 409.843 181.144 409.843C183.291 409.843 185.028 410.529 186.356 411.901C187.685 413.274 188.349 415.133 188.349 417.479C188.349 419.848 187.557 421.746 185.975 423.174C184.392 424.59 182.35 425.299 179.849 425.299ZM194.724 415.305C193.971 415.305 193.335 415.045 192.814 414.524C192.294 414.004 192.034 413.373 192.034 412.632C192.034 411.89 192.294 411.265 192.814 410.756C193.335 410.236 193.971 409.976 194.724 409.976C195.487 409.976 196.129 410.236 196.649 410.756C197.181 411.265 197.446 411.89 197.446 412.632C197.446 413.384 197.181 414.021 196.649 414.541C196.129 415.05 195.487 415.305 194.724 415.305ZM194.724 425.232C193.971 425.232 193.335 424.978 192.814 424.469C192.294 423.96 192.034 423.334 192.034 422.593C192.034 421.851 192.294 421.22 192.814 420.7C193.346 420.169 193.982 419.903 194.724 419.903C195.487 419.903 196.129 420.163 196.649 420.684C197.181 421.204 197.446 421.84 197.446 422.593C197.446 423.334 197.181 423.96 196.649 424.469C196.129 424.978 195.487 425.232 194.724 425.232ZM211.209 425.299C208.243 425.299 205.88 424.303 204.12 422.311C202.36 420.307 201.48 417.601 201.48 414.192V413.063C201.48 409.632 202.366 406.915 204.137 404.912C205.908 402.909 208.265 401.907 211.209 401.907C214.164 401.907 216.516 402.898 218.265 404.879C220.024 406.86 220.904 409.555 220.904 412.964V414.093C220.904 417.535 220.041 420.263 218.314 422.277C216.588 424.292 214.219 425.299 211.209 425.299ZM211.275 422.012C214.883 422.012 216.688 419.383 216.688 414.126V412.964C216.688 410.507 216.212 408.592 215.26 407.22C214.319 405.836 212.969 405.145 211.209 405.145C209.438 405.145 208.077 405.825 207.125 407.187C206.173 408.537 205.697 410.485 205.697 413.03V414.159C205.697 416.727 206.184 418.68 207.158 420.02C208.132 421.348 209.505 422.012 211.275 422.012ZM234.02 425.299C231.053 425.299 228.69 424.303 226.931 422.311C225.171 420.307 224.291 417.601 224.291 414.192V413.063C224.291 409.632 225.176 406.915 226.947 404.912C228.718 402.909 231.076 401.907 234.02 401.907C236.975 401.907 239.326 402.898 241.075 404.879C242.835 406.86 243.715 409.555 243.715 412.964V414.093C243.715 417.535 242.852 420.263 241.125 422.277C239.398 424.292 237.03 425.299 234.02 425.299ZM234.086 422.012C237.694 422.012 239.498 419.383 239.498 414.126V412.964C239.498 410.507 239.022 408.592 238.07 407.22C237.13 405.836 235.779 405.145 234.02 405.145C232.249 405.145 230.887 405.825 229.936 407.187C228.984 408.537 228.508 410.485 228.508 413.03V414.159C228.508 416.727 228.995 418.68 229.969 420.02C230.943 421.348 232.315 422.012 234.086 422.012Z" fill="black"/>
<g filter="url(#filter1_d_236_799)">
<path d="M24 481C24 472.163 31.1634 465 40 465H353C361.837 465 369 472.163 369 481V542C369 550.837 361.837 558 353 558H40C31.1634 558 24 550.837 24 542V481Z" fill="white" shape-rendering="crispEdges"/>
<path d="M84 507C83.0365 507 82.3431 506.674 81.9199 506.023C81.8223 507.872 81.4056 509.282 80.6699 510.252C79.9408 511.229 78.9316 511.717 77.6426 511.717C77.0046 511.717 76.4089 511.671 75.8555 511.58V509.256C76.5977 509.354 77.125 509.402 77.4375 509.402C78.362 509.402 79.0846 509.041 79.6055 508.318C80.1328 507.596 80.3965 506.544 80.3965 505.164C80.3965 503.589 80.2174 501.928 79.8594 500.184H81.9199L82.2812 502.557C82.3789 503.312 82.6068 503.855 82.9648 504.188C83.3229 504.513 83.834 504.676 84.498 504.676V506.502L84 507ZM85.8457 507H84.0098V505.164L84.5078 504.676H85.8457C86.8288 504.676 87.6686 504.598 88.3652 504.441C89.0618 504.285 89.8105 504.005 90.6113 503.602L91.9688 502.938C92.444 502.697 92.8965 502.492 93.3262 502.322C92.7207 502.179 92.0957 501.977 91.4512 501.717L89.7324 501.062C89.0358 500.783 88.4531 500.643 87.9844 500.643C87.6979 500.643 87.4635 500.724 87.2812 500.887C87.099 501.049 86.9818 501.281 86.9297 501.58H85.0645C85.1035 500.551 85.3802 499.747 85.8945 499.168C86.4154 498.589 87.1185 498.299 88.0039 498.299C88.6094 498.299 89.4655 498.507 90.5723 498.924L92.8867 499.783C93.7982 500.161 94.498 500.411 94.9863 500.535C95.4746 500.659 96.002 500.721 96.5684 500.721H97.2324V502.82H96.4902C96.1517 502.82 95.8652 502.853 95.6309 502.918V503.201C95.6309 503.722 95.7904 504.1 96.1094 504.334C96.4349 504.562 96.9557 504.676 97.6719 504.676V506.482L97.1641 507C95.0807 507 93.9902 505.893 93.8926 503.68C93.8014 503.732 93.4076 503.973 92.7109 504.402L91.3633 505.281C90.276 505.971 89.3646 506.43 88.6289 506.658C87.8932 506.886 86.9655 507 85.8457 507ZM92.3105 509.637C92.3105 509.975 92.1934 510.258 91.959 510.486C91.7311 510.721 91.4479 510.838 91.1094 510.838C90.7643 510.838 90.4746 510.721 90.2402 510.486C90.0059 510.258 89.8887 509.975 89.8887 509.637C89.8887 509.285 90.0059 508.992 90.2402 508.758C90.4746 508.53 90.7643 508.416 91.1094 508.416C91.4544 508.416 91.7409 508.53 91.9688 508.758C92.1966 508.992 92.3105 509.285 92.3105 509.637ZM103.248 497.801C103.248 498.126 103.141 498.396 102.926 498.611C102.717 498.82 102.454 498.924 102.135 498.924C101.816 498.924 101.549 498.82 101.334 498.611C101.119 498.396 101.012 498.126 101.012 497.801C101.012 497.488 101.119 497.225 101.334 497.01C101.549 496.788 101.816 496.678 102.135 496.678C102.454 496.678 102.717 496.788 102.926 497.01C103.141 497.225 103.248 497.488 103.248 497.801ZM100.475 497.801C100.475 498.126 100.367 498.396 100.152 498.611C99.944 498.82 99.6771 498.924 99.3516 498.924C99.026 498.924 98.7559 498.82 98.541 498.611C98.3327 498.396 98.2285 498.126 98.2285 497.801C98.2285 497.488 98.3359 497.225 98.5508 497.01C98.7656 496.788 99.0326 496.678 99.3516 496.678C99.6706 496.678 99.9375 496.788 100.152 497.01C100.367 497.225 100.475 497.488 100.475 497.801ZM103.814 506.502L103.316 507C101.487 507 100.432 506.294 100.152 504.881C99.8919 506.294 98.8991 507 97.1738 507V505.164L97.6719 504.676C98.4206 504.676 98.9479 504.497 99.2539 504.139C99.5599 503.781 99.7129 503.175 99.7129 502.322V500.184H101.754V502.322C101.754 502.98 101.816 503.475 101.939 503.807C102.07 504.139 102.275 504.367 102.555 504.49C102.835 504.614 103.255 504.676 103.814 504.676V506.502ZM111.041 506.521L109.908 508.562L108.941 508.035C108.147 507.618 107.372 507.342 106.617 507.205C105.862 507.068 104.758 507 103.307 507V505.164L103.805 504.676C104.931 504.676 105.846 504.822 106.549 505.115C106.269 504.803 106.07 504.467 105.953 504.109C105.842 503.745 105.787 503.296 105.787 502.762V491.697H107.887V502.762C107.887 503.595 108.007 504.217 108.248 504.627C108.495 505.031 108.98 505.428 109.703 505.818L111.041 506.521ZM114.254 507H112.154V491.697H114.254V507ZM128.072 498.104C128.307 498.331 128.424 498.618 128.424 498.963C128.424 499.308 128.307 499.594 128.072 499.822C127.844 500.05 127.561 500.164 127.223 500.164C126.871 500.164 126.578 500.05 126.344 499.822C126.116 499.594 126.002 499.308 126.002 498.963C126.002 498.618 126.116 498.331 126.344 498.104C126.578 497.876 126.871 497.762 127.223 497.762C127.561 497.762 127.844 497.876 128.072 498.104ZM134.703 507C133.707 507 132.975 506.727 132.506 506.18C132.408 507.723 131.91 508.885 131.012 509.666C130.12 510.447 128.837 510.838 127.164 510.838C125.159 510.838 123.688 510.353 122.75 509.383C121.812 508.413 121.35 507.007 121.363 505.164C121.383 504.272 121.49 503.318 121.686 502.303H123.688C123.505 503.195 123.404 503.973 123.385 504.637C123.372 505.926 123.665 506.886 124.264 507.518C124.869 508.149 125.875 508.465 127.281 508.465C128.642 508.465 129.645 508.208 130.289 507.693C130.94 507.179 131.266 506.382 131.266 505.301C131.266 504.773 131.184 504.012 131.021 503.016L130.787 501.58H132.828L133.043 502.898C133.154 503.576 133.359 504.041 133.658 504.295C133.964 504.549 134.479 504.676 135.201 504.676V506.502L134.703 507ZM145.895 503.162C145.895 504.432 145.54 505.421 144.83 506.131C144.127 506.84 143.141 507.195 141.871 507.195C140.204 507.195 138.883 506.678 137.906 505.643C137.522 506.131 137.086 506.479 136.598 506.688C136.109 506.896 135.481 507 134.713 507V505.164L135.211 504.676C135.849 504.676 136.324 504.536 136.637 504.256C136.956 503.969 137.301 503.403 137.672 502.557L138.014 501.863C138.508 500.724 139.068 499.894 139.693 499.373C140.325 498.846 141.096 498.582 142.008 498.582C143.121 498.582 144.046 499.015 144.781 499.881C145.523 500.747 145.895 501.84 145.895 503.162ZM138.951 503.738V503.758C139.329 504.116 139.785 504.393 140.318 504.588C140.859 504.783 141.415 504.881 141.988 504.881C142.743 504.881 143.297 504.738 143.648 504.451C144 504.158 144.176 503.702 144.176 503.084C144.176 502.452 143.971 501.928 143.561 501.512C143.15 501.089 142.633 500.877 142.008 500.877C141.357 500.877 140.823 501.04 140.406 501.365C139.99 501.684 139.612 502.234 139.273 503.016L138.951 503.738ZM169.684 507C167.861 507 166.806 506.281 166.52 504.842C165.986 506.411 163.792 507.195 159.938 507.195C157.307 507.195 155.403 506.798 154.225 506.004C153.046 505.21 152.457 503.927 152.457 502.156C152.457 501.186 152.571 500.294 152.799 499.48H154.801C154.599 500.424 154.498 501.17 154.498 501.717C154.498 502.817 154.934 503.611 155.807 504.1C156.679 504.581 158.111 504.822 160.104 504.822C161.093 504.822 161.913 504.799 162.564 504.754C163.222 504.708 163.788 504.633 164.264 504.529C164.739 504.419 165.104 504.266 165.357 504.07C165.611 503.868 165.794 503.631 165.904 503.357C166.021 503.084 166.08 502.739 166.08 502.322V500.184H168.102V502.322C168.102 503.279 168.242 503.911 168.521 504.217C168.808 504.523 169.361 504.676 170.182 504.676V506.502L169.684 507ZM161.5 509.695C161.5 510.047 161.386 510.337 161.158 510.564C160.93 510.799 160.644 510.916 160.299 510.916C159.954 510.916 159.664 510.799 159.43 510.564C159.195 510.337 159.078 510.047 159.078 509.695C159.078 509.357 159.195 509.074 159.43 508.846C159.664 508.618 159.954 508.504 160.299 508.504C160.644 508.504 160.93 508.618 161.158 508.846C161.386 509.074 161.5 509.357 161.5 509.695ZM176.334 506.502L175.836 507C173.98 507 172.913 506.287 172.633 504.861C172.346 506.287 171.36 507 169.674 507V505.164L170.172 504.676C170.914 504.676 171.435 504.497 171.734 504.139C172.04 503.781 172.193 503.175 172.193 502.322V491.697H174.293V502.322C174.293 502.824 174.322 503.224 174.381 503.523C174.439 503.816 174.55 504.054 174.713 504.236C174.882 504.412 175.087 504.529 175.328 504.588C175.576 504.646 175.911 504.676 176.334 504.676V506.502ZM181.227 507H175.826V505.184L176.324 504.676H177.662C177.851 504.259 178.066 503.833 178.307 503.396V491.697H180.406V500.564C181.917 499.054 183.57 498.299 185.367 498.299C186.038 498.299 186.643 498.416 187.184 498.65C187.73 498.878 188.173 499.188 188.512 499.578C188.857 499.962 189.12 500.402 189.303 500.896C189.492 501.385 189.586 501.899 189.586 502.439C189.586 503.09 189.465 503.67 189.225 504.178C189.654 504.51 190.348 504.676 191.305 504.676V506.482L190.807 507C189.531 507 188.577 506.541 187.945 505.623C186.591 506.541 184.352 507 181.227 507ZM185.26 500.643C184.12 500.643 183.043 501.001 182.027 501.717C181.012 502.426 180.117 503.413 179.342 504.676H181.725C183.886 504.676 185.442 504.503 186.393 504.158C187.35 503.813 187.828 503.253 187.828 502.479C187.828 502.01 187.6 501.587 187.145 501.209C186.695 500.831 186.067 500.643 185.26 500.643ZM191.627 507H190.807V505.164L191.305 504.676C192.125 504.676 192.669 504.5 192.936 504.148C193.209 503.797 193.346 503.087 193.346 502.02V491.697H195.465V502.322C195.465 503.924 195.152 505.105 194.527 505.867C193.902 506.622 192.936 507 191.627 507ZM200.348 507H198.248V491.697H200.348V507ZM219.459 504.402C219.459 506.492 218.932 508.087 217.877 509.188C216.829 510.288 215.309 510.838 213.316 510.838C211.292 510.838 209.804 510.353 208.854 509.383C207.91 508.419 207.444 507.013 207.457 505.164C207.477 504.272 207.584 503.318 207.779 502.303H209.781C209.599 503.201 209.498 503.986 209.479 504.656C209.459 505.932 209.745 506.886 210.338 507.518C210.937 508.149 211.93 508.465 213.316 508.465C214.736 508.465 215.764 508.152 216.402 507.527C217.04 506.909 217.359 505.861 217.359 504.383V491.697H219.459V504.402ZM229.957 507H229.615C229.225 510.145 227.525 511.717 224.518 511.717C223.567 511.717 222.633 511.613 221.715 511.404V509.119C222.626 509.373 223.561 509.5 224.518 509.5C225.566 509.5 226.357 509.308 226.891 508.924C227.431 508.546 227.779 507.905 227.936 507H226.139C224.576 507 223.404 506.674 222.623 506.023C221.842 505.366 221.451 504.445 221.451 503.26C221.451 502.439 221.627 501.671 221.979 500.955C222.337 500.239 222.831 499.666 223.463 499.236C224.101 498.8 224.804 498.582 225.572 498.582C226.751 498.582 227.711 499.113 228.453 500.174C229.202 501.229 229.615 502.729 229.693 504.676H230.455V506.502L229.957 507ZM225.992 504.676H228.033C227.949 503.419 227.662 502.462 227.174 501.805C226.692 501.147 226.048 500.818 225.24 500.818C224.622 500.818 224.124 501.04 223.746 501.482C223.368 501.925 223.18 502.443 223.18 503.035C223.18 503.621 223.395 504.041 223.824 504.295C224.26 504.549 224.983 504.676 225.992 504.676ZM236.607 506.502L236.109 507C234.28 507 233.225 506.294 232.945 504.881C232.685 506.294 231.692 507 229.967 507V505.164L230.465 504.676C231.214 504.676 231.741 504.497 232.047 504.139C232.353 503.781 232.506 503.175 232.506 502.322V500.184H234.547V502.322C234.547 502.98 234.609 503.475 234.732 503.807C234.863 504.139 235.068 504.367 235.348 504.49C235.628 504.614 236.048 504.676 236.607 504.676V506.502ZM234.361 509.637C234.361 509.975 234.244 510.258 234.01 510.486C233.782 510.721 233.499 510.838 233.16 510.838C232.809 510.838 232.519 510.724 232.291 510.496C232.063 510.268 231.949 509.982 231.949 509.637C231.949 509.285 232.063 508.992 232.291 508.758C232.519 508.53 232.809 508.416 233.16 508.416C233.505 508.416 233.792 508.53 234.02 508.758C234.247 508.992 234.361 509.285 234.361 509.637ZM243.58 492.898C243.58 493.25 243.463 493.54 243.229 493.768C243.001 493.989 242.711 494.1 242.359 494.1C242.014 494.1 241.728 493.989 241.5 493.768C241.272 493.54 241.158 493.25 241.158 492.898C241.158 492.56 241.272 492.277 241.5 492.049C241.734 491.814 242.021 491.697 242.359 491.697C242.711 491.697 243.001 491.811 243.229 492.039C243.463 492.267 243.58 492.553 243.58 492.898ZM240.602 492.898C240.602 493.25 240.488 493.54 240.26 493.768C240.038 493.989 239.752 494.1 239.4 494.1C239.055 494.1 238.769 493.989 238.541 493.768C238.313 493.54 238.199 493.25 238.199 492.898C238.199 492.56 238.313 492.277 238.541 492.049C238.769 491.814 239.055 491.697 239.4 491.697C239.752 491.697 240.038 491.811 240.26 492.039C240.488 492.267 240.602 492.553 240.602 492.898ZM239.82 507H236.1V505.164L236.598 504.676H239.898C240.387 504.676 240.777 504.673 241.07 504.666C241.363 504.653 241.656 504.627 241.949 504.588C242.249 504.549 242.477 504.493 242.633 504.422C242.796 504.35 242.945 504.253 243.082 504.129C243.225 503.999 243.329 503.846 243.395 503.67C243.46 503.488 243.508 503.263 243.541 502.996C242.942 503.211 242.109 503.318 241.041 503.318C239.804 503.318 238.821 503.009 238.092 502.391C237.363 501.772 236.998 500.923 236.998 499.842C236.998 499.067 237.174 498.338 237.525 497.654C237.883 496.964 238.365 496.414 238.971 496.004C239.583 495.587 240.237 495.379 240.934 495.379C242.236 495.379 243.281 495.955 244.068 497.107C244.863 498.253 245.26 499.803 245.26 501.756C245.26 502.459 245.221 503.071 245.143 503.592C245.064 504.113 244.934 504.572 244.752 504.969C244.57 505.359 244.342 505.685 244.068 505.945C243.801 506.199 243.46 506.408 243.043 506.57C242.626 506.727 242.161 506.837 241.646 506.902C241.132 506.967 240.523 507 239.82 507ZM238.717 499.744C238.717 500.278 238.928 500.672 239.352 500.926C239.781 501.173 240.364 501.297 241.1 501.297C242.031 501.297 242.851 501.219 243.561 501.062C243.45 499.995 243.141 499.158 242.633 498.553C242.125 497.947 241.5 497.645 240.758 497.645C240.159 497.645 239.667 497.846 239.283 498.25C238.906 498.647 238.717 499.145 238.717 499.744ZM255.992 505.115C255.992 507.381 255.605 509.048 254.83 510.115C254.055 511.183 252.844 511.717 251.197 511.717C250.605 511.717 250.009 511.671 249.41 511.58V509.236C250.087 509.347 250.654 509.402 251.109 509.402C252.112 509.402 252.841 509.064 253.297 508.387C253.759 507.71 253.99 506.635 253.99 505.164C253.99 503.582 253.746 501.655 253.258 499.383H255.396C255.794 501.401 255.992 503.312 255.992 505.115ZM263.18 507H262.994C261.777 507 260.891 506.661 260.338 505.984C259.791 505.301 259.518 504.227 259.518 502.762V491.697H261.637V502.459C261.637 503.292 261.783 503.872 262.076 504.197C262.376 504.516 262.91 504.676 263.678 504.676V506.502L263.18 507ZM268.57 507H263.17V505.184L263.668 504.676H265.006C265.195 504.259 265.41 503.833 265.65 503.396V491.697H267.75V500.564C269.26 499.054 270.914 498.299 272.711 498.299C273.382 498.299 273.987 498.416 274.527 498.65C275.074 498.878 275.517 499.188 275.855 499.578C276.201 499.962 276.464 500.402 276.646 500.896C276.835 501.385 276.93 501.899 276.93 502.439C276.93 503.09 276.809 503.67 276.568 504.178C276.998 504.51 277.691 504.676 278.648 504.676V506.482L278.15 507C276.874 507 275.921 506.541 275.289 505.623C273.935 506.541 271.695 507 268.57 507ZM273.385 495.838C273.385 496.183 273.268 496.469 273.033 496.697C272.805 496.925 272.522 497.039 272.184 497.039C271.839 497.039 271.549 496.925 271.314 496.697C271.087 496.463 270.973 496.176 270.973 495.838C270.973 495.486 271.087 495.197 271.314 494.969C271.549 494.734 271.839 494.617 272.184 494.617C272.529 494.617 272.815 494.734 273.043 494.969C273.271 495.197 273.385 495.486 273.385 495.838ZM272.604 500.643C271.464 500.643 270.387 501.001 269.371 501.717C268.355 502.426 267.46 503.413 266.686 504.676H269.068C271.23 504.676 272.786 504.503 273.736 504.158C274.693 503.813 275.172 503.253 275.172 502.479C275.172 502.01 274.944 501.587 274.488 501.209C274.039 500.831 273.411 500.643 272.604 500.643ZM284.225 497.801C284.225 498.126 284.117 498.396 283.902 498.611C283.694 498.82 283.43 498.924 283.111 498.924C282.792 498.924 282.525 498.82 282.311 498.611C282.096 498.396 281.988 498.126 281.988 497.801C281.988 497.488 282.096 497.225 282.311 497.01C282.525 496.788 282.792 496.678 283.111 496.678C283.43 496.678 283.694 496.788 283.902 497.01C284.117 497.225 284.225 497.488 284.225 497.801ZM281.451 497.801C281.451 498.126 281.344 498.396 281.129 498.611C280.921 498.82 280.654 498.924 280.328 498.924C280.003 498.924 279.732 498.82 279.518 498.611C279.309 498.396 279.205 498.126 279.205 497.801C279.205 497.488 279.312 497.225 279.527 497.01C279.742 496.788 280.009 496.678 280.328 496.678C280.647 496.678 280.914 496.788 281.129 497.01C281.344 497.225 281.451 497.488 281.451 497.801ZM284.791 506.502L284.293 507C282.464 507 281.409 506.294 281.129 504.881C280.868 506.294 279.876 507 278.15 507V505.164L278.648 504.676C279.397 504.676 279.924 504.497 280.23 504.139C280.536 503.781 280.689 503.175 280.689 502.322V500.184H282.73V502.322C282.73 502.98 282.792 503.475 282.916 503.807C283.046 504.139 283.251 504.367 283.531 504.49C283.811 504.614 284.231 504.676 284.791 504.676V506.502ZM288.561 496.316C288.561 496.655 288.443 496.941 288.209 497.176C287.981 497.404 287.698 497.518 287.359 497.518C287.014 497.518 286.725 497.404 286.49 497.176C286.256 496.941 286.139 496.655 286.139 496.316C286.139 495.978 286.256 495.691 286.49 495.457C286.731 495.216 287.021 495.096 287.359 495.096C287.698 495.096 287.981 495.213 288.209 495.447C288.443 495.682 288.561 495.971 288.561 496.316ZM284.879 507H284.283V505.164L284.781 504.676C285.589 504.676 286.145 504.497 286.451 504.139C286.764 503.774 286.92 503.169 286.92 502.322C286.92 501.398 286.812 500.216 286.598 498.777H288.678C288.867 500.255 288.961 501.502 288.961 502.518C288.961 505.506 287.6 507 284.879 507ZM293.414 507H291.314V491.697H293.414V507ZM311.705 492.801C311.705 493.146 311.588 493.432 311.354 493.66C311.126 493.888 310.836 494.002 310.484 494.002C310.146 494.002 309.859 493.888 309.625 493.66C309.397 493.426 309.283 493.139 309.283 492.801C309.283 492.449 309.397 492.16 309.625 491.932C309.853 491.697 310.139 491.58 310.484 491.58C310.836 491.58 311.126 491.697 311.354 491.932C311.588 492.16 311.705 492.449 311.705 492.801ZM313.883 508.279C313.883 508.911 313.619 509.49 313.092 510.018C312.564 510.551 311.806 510.978 310.816 511.297C309.827 511.616 308.71 511.775 307.467 511.775C305.117 511.775 303.372 511.329 302.232 510.438C301.093 509.546 300.523 508.208 300.523 506.424C300.523 505.532 300.637 504.611 300.865 503.66H302.848C302.659 504.695 302.564 505.47 302.564 505.984C302.564 507.124 302.978 507.977 303.805 508.543C304.632 509.116 305.904 509.402 307.623 509.402C309.003 509.402 310.084 509.259 310.865 508.973C311.653 508.686 312.047 508.289 312.047 507.781C312.047 507.456 311.878 507.199 311.539 507.01C311.207 506.827 310.729 506.736 310.104 506.736H307.887V504.5H310.484C311.415 504.5 312.073 504.37 312.457 504.109C312.841 503.842 313.072 503.338 313.15 502.596C312.551 502.811 311.708 502.918 310.621 502.918C309.371 502.918 308.382 502.618 307.652 502.02C306.93 501.421 306.568 500.594 306.568 499.539C306.568 498.406 306.962 497.41 307.75 496.551C308.538 495.691 309.462 495.262 310.523 495.262C311.819 495.262 312.864 495.835 313.658 496.98C314.452 498.12 314.85 499.653 314.85 501.58C314.85 502.98 314.667 504.051 314.303 504.793C313.945 505.529 313.346 506.03 312.506 506.297C313.424 506.688 313.883 507.348 313.883 508.279ZM308.307 499.5C308.307 500.027 308.518 500.415 308.941 500.662C309.371 500.903 309.954 501.023 310.689 501.023C311.555 501.023 312.366 500.929 313.121 500.74C312.991 499.744 312.675 498.966 312.174 498.406C311.673 497.84 311.064 497.557 310.348 497.557C309.742 497.557 309.251 497.742 308.873 498.113C308.495 498.484 308.307 498.947 308.307 499.5ZM309.439 513.494C309.667 513.729 309.781 514.018 309.781 514.363C309.781 514.708 309.667 514.995 309.439 515.223C309.212 515.451 308.922 515.564 308.57 515.564C308.232 515.564 307.945 515.447 307.711 515.213C307.483 514.985 307.369 514.702 307.369 514.363C307.369 514.018 307.483 513.729 307.711 513.494C307.945 513.26 308.232 513.143 308.57 513.143C308.922 513.143 309.212 513.26 309.439 513.494ZM306.461 513.494C306.689 513.729 306.803 514.018 306.803 514.363C306.803 514.708 306.689 514.995 306.461 515.223C306.24 515.451 305.953 515.564 305.602 515.564C305.263 515.564 304.98 515.451 304.752 515.223C304.524 514.995 304.41 514.708 304.41 514.363C304.41 514.018 304.524 513.729 304.752 513.494C304.98 513.26 305.263 513.143 305.602 513.143C305.947 513.143 306.233 513.26 306.461 513.494Z" fill="#303748"/>
<path d="M129.897 530C129.269 530 128.783 529.886 128.441 529.658C128.1 529.426 127.885 529.068 127.799 528.585C127.626 529.109 127.159 529.496 126.397 529.747C125.636 529.998 124.554 530.123 123.15 530.123C121.391 530.123 120.118 529.87 119.329 529.364C118.545 528.858 118.153 528.038 118.153 526.903C118.153 526.215 118.233 525.6 118.393 525.058H119.37C119.211 525.746 119.131 526.293 119.131 526.698C119.131 527.509 119.445 528.097 120.074 528.462C120.708 528.826 121.733 529.009 123.15 529.009C123.761 529.009 124.281 528.997 124.709 528.975C125.142 528.947 125.527 528.904 125.864 528.845C126.206 528.781 126.482 528.701 126.691 528.605C126.901 528.51 127.074 528.384 127.211 528.229C127.348 528.075 127.441 527.899 127.491 527.703C127.546 527.507 127.573 527.27 127.573 526.992V525.55H128.558V526.992C128.558 527.525 128.608 527.926 128.708 528.195C128.808 528.46 128.968 528.64 129.187 528.735C129.405 528.831 129.736 528.879 130.178 528.879V529.72L129.897 530ZM123.868 531.326C124.005 531.463 124.073 531.632 124.073 531.832C124.073 532.033 124.005 532.201 123.868 532.338C123.731 532.479 123.563 532.55 123.362 532.55C123.162 532.55 122.991 532.479 122.85 532.338C122.713 532.201 122.645 532.033 122.645 531.832C122.645 531.632 122.713 531.463 122.85 531.326C122.991 531.189 123.162 531.121 123.362 531.121C123.563 531.121 123.731 531.189 123.868 531.326ZM134.361 529.72L134.081 530C133.475 530 133.001 529.893 132.659 529.679C132.322 529.465 132.101 529.132 131.996 528.681C131.8 529.56 131.101 530 129.897 530V529.159L130.178 528.879C130.752 528.879 131.158 528.738 131.395 528.455C131.636 528.173 131.757 527.685 131.757 526.992V519.179H132.741V526.992C132.741 527.525 132.791 527.926 132.892 528.195C132.992 528.46 133.151 528.64 133.37 528.735C133.589 528.831 133.919 528.879 134.361 528.879V529.72ZM137.663 530H134.081V529.159L134.361 528.879H135.455C135.619 528.464 135.776 528.125 135.927 527.86V519.179H136.911V526.418C138.032 525.092 139.283 524.429 140.664 524.429C141.024 524.429 141.354 524.479 141.655 524.579C141.956 524.675 142.209 524.807 142.414 524.976C142.624 525.144 142.801 525.34 142.947 525.563C143.093 525.787 143.198 526.021 143.262 526.268C143.33 526.514 143.364 526.769 143.364 527.033C143.364 527.594 143.234 528.056 142.975 528.421C143.294 528.726 143.82 528.879 144.554 528.879V529.72L144.273 530C143.403 530 142.726 529.711 142.243 529.132C141.336 529.711 139.81 530 137.663 530ZM140.589 525.563C139.755 525.563 138.969 525.862 138.23 526.459C137.497 527.056 136.875 527.863 136.364 528.879H137.943C139.465 528.879 140.587 528.731 141.307 528.435C142.027 528.134 142.387 527.667 142.387 527.033C142.387 526.86 142.353 526.691 142.284 526.527C142.216 526.359 142.111 526.201 141.97 526.056C141.833 525.91 141.644 525.791 141.402 525.7C141.165 525.609 140.894 525.563 140.589 525.563ZM144.684 530H144.267V529.159L144.547 528.879C144.884 528.879 145.153 528.852 145.354 528.797C145.554 528.738 145.718 528.624 145.846 528.455C145.973 528.286 146.06 528.068 146.105 527.799C146.151 527.53 146.174 527.168 146.174 526.712V519.179H147.151V526.992C147.151 528.022 146.951 528.781 146.55 529.269C146.149 529.756 145.527 530 144.684 530ZM150.364 530H149.387V519.179H150.364V530ZM163.811 528.332C163.811 529.754 163.476 530.832 162.806 531.565C162.136 532.304 161.154 532.673 159.859 532.673C158.529 532.673 157.556 532.356 156.94 531.723C156.325 531.094 156.024 530.173 156.038 528.961C156.052 528.364 156.127 527.717 156.264 527.02H157.241C157.104 527.744 157.029 528.323 157.016 528.756C157.002 529.704 157.214 530.406 157.651 530.861C158.089 531.322 158.825 531.552 159.859 531.552C160.88 531.552 161.63 531.303 162.108 530.807C162.587 530.314 162.826 529.494 162.826 528.346V519.179H163.811V528.332ZM171.146 530H170.742C170.615 531.107 170.275 531.923 169.724 532.447C169.177 532.971 168.395 533.233 167.379 533.233C166.786 533.233 166.18 533.163 165.561 533.021V531.846C166.199 532.023 166.821 532.112 167.427 532.112C168.142 532.112 168.685 531.951 169.054 531.627C169.423 531.303 169.66 530.761 169.765 530H168.753C167.618 530 166.78 529.784 166.237 529.351C165.695 528.918 165.424 528.302 165.424 527.505C165.424 526.958 165.535 526.452 165.759 525.987C165.987 525.518 166.306 525.142 166.716 524.859C167.131 524.572 167.591 524.429 168.097 524.429C168.912 524.429 169.566 524.816 170.059 525.591C170.551 526.361 170.797 527.457 170.797 528.879H171.426V529.72L171.146 530ZM168.767 528.879H169.819C169.815 527.781 169.658 526.951 169.348 526.391C169.038 525.83 168.598 525.55 168.028 525.55C167.532 525.55 167.137 525.741 166.846 526.124C166.559 526.507 166.415 526.953 166.415 527.464C166.415 527.974 166.595 528.339 166.955 528.558C167.315 528.772 167.919 528.879 168.767 528.879ZM175.609 529.72L175.329 530C174.723 530 174.249 529.893 173.907 529.679C173.57 529.465 173.349 529.132 173.244 528.681C173.048 529.56 172.349 530 171.146 530V529.159L171.426 528.879C172 528.879 172.406 528.738 172.643 528.455C172.884 528.173 173.005 527.685 173.005 526.992V525.55H173.989V526.992C173.989 527.525 174.039 527.926 174.14 528.195C174.24 528.46 174.399 528.64 174.618 528.735C174.837 528.831 175.167 528.879 175.609 528.879V529.72ZM173.723 531.326C173.864 531.463 173.935 531.632 173.935 531.832C173.935 532.033 173.864 532.201 173.723 532.338C173.586 532.479 173.417 532.55 173.217 532.55C173.016 532.55 172.848 532.479 172.711 532.338C172.574 532.201 172.506 532.033 172.506 531.832C172.506 531.632 172.574 531.463 172.711 531.326C172.848 531.189 173.016 531.121 173.217 531.121C173.417 531.121 173.586 531.189 173.723 531.326ZM179.882 520.156C180.019 520.293 180.087 520.462 180.087 520.662C180.087 520.863 180.019 521.031 179.882 521.168C179.745 521.305 179.576 521.373 179.376 521.373C179.175 521.373 179.005 521.305 178.863 521.168C178.727 521.031 178.658 520.863 178.658 520.662C178.658 520.462 178.727 520.293 178.863 520.156C179.005 520.02 179.175 519.951 179.376 519.951C179.576 519.951 179.745 520.02 179.882 520.156ZM178.036 520.156C178.173 520.293 178.241 520.462 178.241 520.662C178.241 520.863 178.173 521.031 178.036 521.168C177.899 521.305 177.731 521.373 177.53 521.373C177.33 521.373 177.159 521.305 177.018 521.168C176.881 521.031 176.812 520.863 176.812 520.662C176.812 520.462 176.881 520.293 177.018 520.156C177.159 520.02 177.33 519.951 177.53 519.951C177.731 519.951 177.899 520.02 178.036 520.156ZM177.428 530H175.329V529.159L175.609 528.879H177.428C177.729 528.879 177.963 528.879 178.132 528.879C178.305 528.874 178.494 528.865 178.699 528.852C178.909 528.838 179.068 528.82 179.178 528.797C179.287 528.774 179.406 528.742 179.533 528.701C179.665 528.656 179.763 528.603 179.827 528.544C179.891 528.48 179.955 528.403 180.019 528.312C180.087 528.216 180.137 528.109 180.169 527.99C180.201 527.867 180.226 527.726 180.244 527.566C179.87 527.685 179.376 527.744 178.761 527.744C177.886 527.744 177.188 527.528 176.669 527.095C176.149 526.662 175.89 526.062 175.89 525.297C175.89 524.782 176.004 524.297 176.231 523.841C176.464 523.385 176.778 523.021 177.175 522.747C177.571 522.469 177.997 522.33 178.453 522.33C179.337 522.33 180.025 522.699 180.518 523.438C181.014 524.171 181.263 525.197 181.263 526.514C181.263 526.951 181.242 527.332 181.201 527.655C181.16 527.979 181.099 528.268 181.017 528.523C180.939 528.774 180.825 528.984 180.675 529.152C180.529 529.321 180.363 529.462 180.176 529.576C179.993 529.69 179.759 529.777 179.472 529.836C179.189 529.895 178.888 529.938 178.569 529.966C178.255 529.989 177.874 530 177.428 530ZM176.881 525.297C176.881 525.753 177.052 526.088 177.394 526.302C177.74 526.516 178.2 526.623 178.774 526.623C179.326 526.623 179.829 526.559 180.285 526.432C180.258 525.488 180.082 524.757 179.759 524.237C179.44 523.713 179.005 523.451 178.453 523.451C178.007 523.451 177.633 523.629 177.332 523.984C177.031 524.335 176.881 524.773 176.881 525.297ZM193.369 529.72L193.089 530C192.692 530 192.364 529.92 192.104 529.761C191.849 529.601 191.619 529.339 191.414 528.975C190.981 529.339 190.496 529.624 189.958 529.829C189.425 530.03 188.887 530.128 188.345 530.123C187.547 530.114 186.959 529.934 186.581 529.583C186.207 529.228 186.021 528.676 186.021 527.929H187.005C187.005 528.312 187.105 528.587 187.306 528.756C187.506 528.924 187.853 529.009 188.345 529.009C188.846 529.009 189.331 528.938 189.801 528.797C190.275 528.656 190.689 528.455 191.045 528.195C191.036 528.159 191.013 528.093 190.977 527.997L189.213 523.267H190.307L191.961 527.676C192.13 528.132 192.307 528.446 192.494 528.619C192.686 528.792 192.977 528.879 193.369 528.879V529.72ZM194.21 530H193.089V529.159L193.369 528.879H194.771C195.249 528.879 195.691 528.852 196.097 528.797C195.554 528.318 194.992 527.589 194.408 526.609L194.066 526.049V524.935C195.279 524.597 196.395 524.429 197.416 524.429C198.437 524.429 199.187 524.588 199.665 524.907C200.148 525.222 200.396 525.73 200.41 526.432C200.415 526.851 200.278 527.266 200 527.676C199.727 528.086 199.337 528.455 198.831 528.783C199.291 528.847 199.866 528.879 200.554 528.879H201.169V529.72L200.889 530H200.554C199.127 530 198.029 529.84 197.259 529.521C196.288 529.84 195.272 530 194.21 530ZM195.188 525.994C195.584 526.669 195.962 527.197 196.322 527.58C196.687 527.963 197.102 528.252 197.566 528.448C198.173 528.225 198.637 527.942 198.961 527.601C199.289 527.259 199.446 526.896 199.433 526.514C199.419 526.167 199.25 525.921 198.927 525.775C198.608 525.625 198.104 525.55 197.416 525.55C196.655 525.55 195.876 525.639 195.078 525.816L195.188 525.994ZM201.162 530H200.882V529.159L201.162 528.879C201.805 528.879 202.249 528.74 202.495 528.462C202.746 528.184 202.871 527.726 202.871 527.088C202.871 526.486 202.791 525.646 202.632 524.565H203.657C203.785 525.522 203.849 526.363 203.849 527.088C203.849 528.09 203.632 528.826 203.199 529.296C202.766 529.765 202.087 530 201.162 530ZM203.22 531.326C203.361 531.463 203.432 531.632 203.432 531.832C203.432 532.033 203.361 532.201 203.22 532.338C203.083 532.479 202.914 532.55 202.714 532.55C202.513 532.55 202.345 532.479 202.208 532.338C202.071 532.201 202.003 532.033 202.003 531.832C202.003 531.632 202.071 531.463 202.208 531.326C202.345 531.189 202.513 531.121 202.714 531.121C202.914 531.121 203.083 531.189 203.22 531.326ZM213.323 522.255C213.46 522.392 213.528 522.56 213.528 522.761C213.528 522.961 213.46 523.132 213.323 523.273C213.187 523.41 213.018 523.479 212.817 523.479C212.617 523.479 212.446 523.41 212.305 523.273C212.168 523.132 212.1 522.961 212.1 522.761C212.1 522.56 212.168 522.392 212.305 522.255C212.446 522.118 212.617 522.05 212.817 522.05C213.018 522.05 213.187 522.118 213.323 522.255ZM211.471 522.255C211.612 522.392 211.683 522.56 211.683 522.761C211.683 522.961 211.612 523.132 211.471 523.273C211.334 523.41 211.165 523.479 210.965 523.479C210.764 523.479 210.596 523.41 210.459 523.273C210.322 523.132 210.254 522.961 210.254 522.761C210.254 522.56 210.322 522.392 210.459 522.255C210.596 522.118 210.764 522.05 210.965 522.05C211.165 522.05 211.334 522.118 211.471 522.255ZM211.922 530.123H211.86C211.045 530.123 210.402 529.882 209.933 529.398C209.463 528.911 209.229 528.28 209.229 527.505C209.229 526.949 209.336 526.438 209.55 525.974C209.764 525.504 210.074 525.131 210.479 524.853C210.885 524.57 211.345 524.429 211.86 524.429H211.922C212.437 524.429 212.897 524.57 213.303 524.853C213.708 525.131 214.018 525.504 214.232 525.974C214.447 526.438 214.554 526.949 214.554 527.505C214.554 528.28 214.319 528.911 213.85 529.398C213.38 529.882 212.738 530.123 211.922 530.123ZM210.213 527.505C210.213 527.956 210.359 528.321 210.65 528.599C210.947 528.872 211.35 529.009 211.86 529.009H211.922C212.432 529.009 212.833 528.872 213.125 528.599C213.421 528.321 213.569 527.956 213.569 527.505C213.569 526.953 213.419 526.491 213.118 526.117C212.817 525.739 212.419 525.55 211.922 525.55H211.86C211.364 525.55 210.965 525.739 210.664 526.117C210.363 526.491 210.213 526.953 210.213 527.505ZM218.491 528.865C218.491 530.36 218.238 531.461 217.732 532.167C217.227 532.878 216.438 533.233 215.367 533.233C214.948 533.233 214.538 533.197 214.137 533.124V532.003C214.583 532.076 214.971 532.112 215.299 532.112C216.055 532.112 216.614 531.848 216.974 531.319C217.334 530.795 217.514 529.977 217.514 528.865C217.514 527.726 217.372 526.457 217.09 525.058H218.143C218.375 526.338 218.491 527.607 218.491 528.865ZM225.409 530H225.006C224.878 531.107 224.539 531.923 223.987 532.447C223.44 532.971 222.659 533.233 221.643 533.233C221.05 533.233 220.444 533.163 219.824 533.021V531.846C220.462 532.023 221.084 532.112 221.69 532.112C222.406 532.112 222.948 531.951 223.317 531.627C223.687 531.303 223.924 530.761 224.028 530H223.017C221.882 530 221.043 529.784 220.501 529.351C219.959 528.918 219.688 528.302 219.688 527.505C219.688 526.958 219.799 526.452 220.022 525.987C220.25 525.518 220.569 525.142 220.979 524.859C221.394 524.572 221.854 524.429 222.36 524.429C223.176 524.429 223.83 524.816 224.322 525.591C224.814 526.361 225.061 527.457 225.061 528.879H225.689V529.72L225.409 530ZM223.03 528.879H224.083C224.078 527.781 223.921 526.951 223.611 526.391C223.301 525.83 222.862 525.55 222.292 525.55C221.795 525.55 221.401 525.741 221.109 526.124C220.822 526.507 220.679 526.953 220.679 527.464C220.679 527.974 220.859 528.339 221.219 528.558C221.579 528.772 222.183 528.879 223.03 528.879ZM228.882 522.398C229.023 522.535 229.094 522.704 229.094 522.904C229.094 523.105 229.023 523.273 228.882 523.41C228.745 523.547 228.576 523.615 228.376 523.615C228.175 523.615 228.007 523.547 227.87 523.41C227.733 523.273 227.665 523.105 227.665 522.904C227.665 522.704 227.733 522.535 227.87 522.398C228.007 522.257 228.175 522.187 228.376 522.187C228.576 522.187 228.745 522.257 228.882 522.398ZM227.036 522.398C227.173 522.535 227.241 522.704 227.241 522.904C227.241 523.105 227.173 523.273 227.036 523.41C226.899 523.547 226.731 523.615 226.53 523.615C226.33 523.615 226.159 523.547 226.018 523.41C225.881 523.273 225.812 523.105 225.812 522.904C225.812 522.704 225.881 522.535 226.018 522.398C226.159 522.257 226.33 522.187 226.53 522.187C226.731 522.187 226.899 522.257 227.036 522.398ZM225.689 530H225.409V529.159L225.689 528.879C226.332 528.879 226.776 528.74 227.022 528.462C227.273 528.184 227.398 527.726 227.398 527.088C227.398 526.486 227.319 525.646 227.159 524.565H228.185C228.312 525.522 228.376 526.363 228.376 527.088C228.376 528.09 228.16 528.826 227.727 529.296C227.294 529.765 226.615 530 225.689 530ZM232.519 530H232.45C231.675 530 231.106 529.77 230.741 529.31C230.377 528.845 230.194 528.118 230.194 527.129V519.179H231.179V527.129C231.179 527.781 231.297 528.236 231.534 528.496C231.776 528.751 232.197 528.879 232.799 528.879V529.72L232.519 530ZM236.62 521.414C236.761 521.551 236.832 521.719 236.832 521.92C236.832 522.12 236.761 522.291 236.62 522.433C236.483 522.569 236.315 522.638 236.114 522.638C235.914 522.638 235.745 522.569 235.608 522.433C235.472 522.291 235.403 522.12 235.403 521.92C235.403 521.719 235.472 521.551 235.608 521.414C235.745 521.277 235.914 521.209 236.114 521.209C236.315 521.209 236.483 521.277 236.62 521.414ZM233.414 530H232.519V529.159L232.799 528.879H233.414C233.929 528.879 234.353 528.861 234.686 528.824C233.838 528.186 233.414 527.425 233.414 526.541C233.414 526.122 233.492 525.728 233.646 525.358C233.801 524.985 234.007 524.67 234.262 524.415C234.517 524.16 234.811 523.959 235.144 523.813C235.476 523.663 235.816 523.588 236.162 523.588C236.654 523.588 237.103 523.718 237.509 523.978C237.914 524.237 238.229 524.584 238.452 525.017C238.68 525.45 238.794 525.921 238.794 526.432C238.794 527.384 238.391 528.177 237.584 528.811C238.003 528.856 238.407 528.879 238.794 528.879H239.464V529.72L239.184 530H238.794C237.832 530 236.948 529.861 236.142 529.583C235.335 529.861 234.426 530 233.414 530ZM234.392 526.473C234.392 526.942 234.556 527.354 234.884 527.71C235.212 528.061 235.674 528.334 236.271 528.53C237.297 528.184 237.81 527.53 237.81 526.568C237.81 526.062 237.65 525.627 237.331 525.263C237.017 524.894 236.606 524.709 236.101 524.709C235.595 524.709 235.182 524.887 234.863 525.242C234.549 525.598 234.392 526.008 234.392 526.473ZM239.594 530H239.177V529.159L239.457 528.879C239.794 528.879 240.063 528.852 240.264 528.797C240.464 528.738 240.628 528.624 240.756 528.455C240.883 528.286 240.97 528.068 241.016 527.799C241.061 527.53 241.084 527.168 241.084 526.712V519.179H242.062V526.992C242.062 528.022 241.861 528.781 241.46 529.269C241.059 529.756 240.437 530 239.594 530ZM245.274 530H244.297V519.179H245.274V530ZM254.612 530C253.97 530 253.484 529.777 253.156 529.33C253.07 530.57 252.769 531.529 252.254 532.208C251.743 532.892 251.064 533.233 250.217 533.233C249.798 533.233 249.387 533.197 248.986 533.124V532.003C249.433 532.076 249.82 532.112 250.148 532.112C250.841 532.112 251.383 531.825 251.775 531.251C252.167 530.681 252.363 529.886 252.363 528.865C252.363 527.753 252.261 526.648 252.056 525.55H253.006L253.286 527.423C253.345 527.924 253.509 528.293 253.778 528.53C254.047 528.763 254.419 528.879 254.893 528.879V529.72L254.612 530ZM261.544 531.244C261.544 531.837 261.309 532.315 260.84 532.68C260.375 533.049 259.746 533.233 258.953 533.233C257.955 533.233 257.176 532.951 256.615 532.386C256.055 531.825 255.756 531.03 255.72 530H254.612V529.159L254.893 528.879H255.802C255.934 528.109 256.214 527.325 256.643 526.527C257.071 525.73 257.613 524.982 258.27 524.285H259.384C259.862 524.855 260.2 525.349 260.396 525.769C260.591 526.183 260.689 526.66 260.689 527.197C260.689 527.844 260.418 528.405 259.876 528.879H261.975V529.72L261.694 530H260.983C261.357 530.346 261.544 530.761 261.544 531.244ZM259.712 527.259C259.712 526.935 259.625 526.582 259.452 526.199C259.279 525.812 259.033 525.459 258.714 525.14C258.208 525.718 257.789 526.331 257.456 526.979C257.128 527.621 256.902 528.25 256.779 528.865C257.24 528.847 257.641 528.806 257.982 528.742C258.329 528.678 258.609 528.601 258.823 528.51C259.042 528.414 259.217 528.3 259.35 528.168C259.486 528.031 259.58 527.892 259.63 527.751C259.685 527.605 259.712 527.441 259.712 527.259ZM260.607 531.244C260.607 530.611 259.874 530.089 258.406 529.679C257.868 529.847 257.299 529.95 256.697 529.986C256.738 530.693 256.964 531.224 257.374 531.579C257.784 531.935 258.356 532.112 259.09 532.112C260.102 532.112 260.607 531.823 260.607 531.244ZM265.276 530H261.694V529.159L261.975 528.879H263.068C263.232 528.464 263.39 528.125 263.54 527.86V519.179H264.524V526.418C265.646 525.092 266.896 524.429 268.277 524.429C268.637 524.429 268.968 524.479 269.269 524.579C269.569 524.675 269.822 524.807 270.027 524.976C270.237 525.144 270.415 525.34 270.561 525.563C270.706 525.787 270.811 526.021 270.875 526.268C270.943 526.514 270.978 526.769 270.978 527.033C270.978 527.594 270.848 528.056 270.588 528.421C270.907 528.726 271.433 528.879 272.167 528.879V529.72L271.887 530C271.016 530 270.34 529.711 269.856 529.132C268.95 529.711 267.423 530 265.276 530ZM268.359 522.255C268.501 522.392 268.571 522.56 268.571 522.761C268.571 522.961 268.501 523.132 268.359 523.273C268.223 523.41 268.054 523.479 267.854 523.479C267.653 523.479 267.484 523.41 267.348 523.273C267.211 523.132 267.143 522.961 267.143 522.761C267.143 522.56 267.211 522.392 267.348 522.255C267.484 522.118 267.653 522.05 267.854 522.05C268.054 522.05 268.223 522.118 268.359 522.255ZM268.202 525.563C267.368 525.563 266.582 525.862 265.844 526.459C265.11 527.056 264.488 527.863 263.978 528.879H265.557C267.079 528.879 268.2 528.731 268.92 528.435C269.64 528.134 270 527.667 270 527.033C270 526.86 269.966 526.691 269.897 526.527C269.829 526.359 269.724 526.201 269.583 526.056C269.446 525.91 269.257 525.791 269.016 525.7C268.779 525.609 268.507 525.563 268.202 525.563ZM275.353 522.398C275.494 522.535 275.564 522.704 275.564 522.904C275.564 523.105 275.494 523.273 275.353 523.41C275.216 523.547 275.047 523.615 274.847 523.615C274.646 523.615 274.478 523.547 274.341 523.41C274.204 523.273 274.136 523.105 274.136 522.904C274.136 522.704 274.204 522.535 274.341 522.398C274.478 522.257 274.646 522.187 274.847 522.187C275.047 522.187 275.216 522.257 275.353 522.398ZM273.507 522.398C273.644 522.535 273.712 522.704 273.712 522.904C273.712 523.105 273.644 523.273 273.507 523.41C273.37 523.547 273.201 523.615 273.001 523.615C272.8 523.615 272.63 523.547 272.488 523.41C272.352 523.273 272.283 523.105 272.283 522.904C272.283 522.704 272.352 522.535 272.488 522.398C272.63 522.257 272.8 522.187 273.001 522.187C273.201 522.187 273.37 522.257 273.507 522.398ZM272.16 530H271.88V529.159L272.16 528.879C272.803 528.879 273.247 528.74 273.493 528.462C273.744 528.184 273.869 527.726 273.869 527.088C273.869 526.486 273.789 525.646 273.63 524.565H274.655C274.783 525.522 274.847 526.363 274.847 527.088C274.847 528.09 274.63 528.826 274.197 529.296C273.764 529.765 273.085 530 272.16 530Z" fill="#949494"/>
</g>
<rect width="393" height="150" transform="translate(0 701)" fill="white"/>
<g filter="url(#filter2_d_236_799)">
<path d="M20 729C20 720.163 27.1634 713 36 713H357C365.837 713 373 720.163 373 729V745C373 753.837 365.837 761 357 761H36C27.1634 761 20 753.837 20 745V729Z" fill="#0528F2"/>
<path d="M36 713.5H357C365.56 713.5 372.5 720.44 372.5 729V745C372.5 753.56 365.56 760.5 357 760.5H36C27.4396 760.5 20.5 753.56 20.5 745V729C20.5 720.44 27.4396 713.5 36 713.5Z" stroke="#0528F2"/>
<path d="M177.492 742C176.628 742 176.005 741.745 175.625 741.234C175.568 742.453 175.167 743.398 174.422 744.07C173.682 744.747 172.615 745.086 171.219 745.086C169.573 745.086 168.357 744.682 167.57 743.875C166.784 743.068 166.396 741.893 166.406 740.352C166.427 739.518 166.513 738.74 166.664 738.016H168.547C168.417 738.719 168.344 739.333 168.328 739.859C168.318 740.844 168.542 741.578 169 742.062C169.458 742.552 170.221 742.797 171.289 742.797C172.378 742.797 173.169 742.596 173.664 742.195C174.159 741.794 174.406 741.164 174.406 740.305V729.844H176.438V738.062C176.438 738.745 176.542 739.201 176.75 739.43C176.964 739.659 177.359 739.773 177.938 739.773V741.555L177.492 742ZM178.078 742H177.492V740.211L177.938 739.773C178.531 739.773 178.94 739.638 179.164 739.367C179.393 739.096 179.508 738.641 179.508 738C179.508 737.365 179.427 736.432 179.266 735.203H181.219C181.37 736.422 181.445 737.44 181.445 738.258C181.445 739.492 181.164 740.424 180.602 741.055C180.039 741.685 179.198 742 178.078 742ZM181.844 744.227C181.844 744.497 181.755 744.721 181.578 744.898C181.401 745.081 181.18 745.172 180.914 745.172C180.638 745.172 180.411 745.083 180.234 744.906C180.057 744.729 179.969 744.503 179.969 744.227C179.969 743.961 180.057 743.737 180.234 743.555C180.417 743.372 180.643 743.281 180.914 743.281C181.18 743.281 181.401 743.372 181.578 743.555C181.755 743.737 181.844 743.961 181.844 744.227ZM179.555 744.227C179.555 744.503 179.464 744.729 179.281 744.906C179.104 745.083 178.88 745.172 178.609 745.172C178.344 745.172 178.12 745.081 177.938 744.898C177.755 744.721 177.664 744.497 177.664 744.227C177.664 743.961 177.755 743.737 177.938 743.555C178.12 743.372 178.344 743.281 178.609 743.281C178.88 743.281 179.104 743.372 179.281 743.555C179.464 743.737 179.555 743.961 179.555 744.227ZM193.141 741.555L192.695 742C192.185 742 191.763 741.914 191.43 741.742C191.096 741.57 190.792 741.273 190.516 740.852C189.495 741.747 188.359 742.195 187.109 742.195C186.042 742.19 185.273 741.927 184.805 741.406C184.336 740.88 184.102 740.055 184.102 738.93H185.891C185.901 739.294 186.008 739.56 186.211 739.727C186.414 739.888 186.779 739.969 187.305 739.969C188.232 739.969 189.068 739.786 189.812 739.422C189.745 739.266 189.669 739.076 189.586 738.852L187.719 733.727H190.008L191.586 738.125C191.815 738.792 192.026 739.234 192.219 739.453C192.411 739.667 192.719 739.773 193.141 739.773V741.555ZM194.312 742H192.695V740.211L193.141 739.773H195.367C195.596 739.773 195.771 739.768 195.891 739.758C195.49 739.341 195.086 738.857 194.68 738.305L194.086 737.523V735.438C195.456 735.068 196.789 734.883 198.086 734.883C199.409 734.883 200.367 735.068 200.961 735.438C201.555 735.802 201.859 736.417 201.875 737.281C201.891 738.156 201.497 738.987 200.695 739.773H202.836V741.555L202.391 742H201.992C200.414 742 199.117 741.781 198.102 741.344C196.94 741.781 195.677 742 194.312 742ZM198.086 736.961C197.242 736.961 196.443 737.023 195.688 737.148C196.141 737.789 196.568 738.289 196.969 738.648C197.375 739.003 197.828 739.266 198.328 739.438C198.984 739.266 199.49 739.039 199.844 738.758C200.198 738.471 200.37 738.167 200.359 737.844C200.354 737.526 200.169 737.299 199.805 737.164C199.445 737.029 198.872 736.961 198.086 736.961ZM207.07 733.297C207.07 733.568 206.979 733.794 206.797 733.977C206.62 734.154 206.396 734.242 206.125 734.242C205.854 734.242 205.628 734.154 205.445 733.977C205.268 733.794 205.18 733.568 205.18 733.297C205.18 733.031 205.268 732.807 205.445 732.625C205.628 732.443 205.854 732.352 206.125 732.352C206.396 732.352 206.62 732.443 206.797 732.625C206.979 732.807 207.07 733.031 207.07 733.297ZM204.766 733.297C204.766 733.568 204.677 733.794 204.5 733.977C204.323 734.154 204.102 734.242 203.836 734.242C203.56 734.242 203.333 734.154 203.156 733.977C202.979 733.794 202.891 733.568 202.891 733.297C202.891 733.031 202.979 732.807 203.156 732.625C203.339 732.443 203.565 732.352 203.836 732.352C204.102 732.352 204.323 732.443 204.5 732.625C204.677 732.807 204.766 733.031 204.766 733.297ZM202.984 742H202.398V740.211L202.844 739.773C203.438 739.773 203.846 739.638 204.07 739.367C204.299 739.096 204.414 738.641 204.414 738C204.414 737.365 204.333 736.432 204.172 735.203H206.125C206.276 736.422 206.352 737.44 206.352 738.258C206.352 739.492 206.07 740.424 205.508 741.055C204.945 741.685 204.104 742 202.984 742Z" fill="white"/>
<path d="M219.056 741.596L217.401 742.231C217.301 742.268 217.21 742.245 217.128 742.163C217.05 742.081 217.03 741.988 217.066 741.883L217.736 740.276L225.427 732.593L226.739 733.912L219.056 741.596ZM227.396 733.27L226.069 731.95L226.808 731.219C226.99 731.041 227.179 730.945 227.375 730.932C227.571 730.918 227.753 730.993 227.922 731.157L228.188 731.431C228.357 731.599 228.437 731.779 228.428 731.971C228.419 732.162 228.321 732.351 228.134 732.538L227.396 733.27Z" fill="white"/>
</g>
</g>
<rect width="139" height="5" rx="2.5" transform="matrix(-1 0 0 1 266 838)" fill="black"/>
<path d="M57.6905 23.0627C58.3324 23.0627 58.9411 23.1817 59.5167 23.4197C60.0922 23.6521 60.6013 24.0173 61.044 24.5154C61.4922 25.0079 61.8436 25.6415 62.0982 26.4163C62.3528 27.1855 62.48 28.1124 62.48 29.197V29.2136C62.48 30.5583 62.2864 31.7094 61.899 32.6667C61.5116 33.6241 60.9555 34.3601 60.2305 34.8748C59.5111 35.3839 58.6506 35.6384 57.649 35.6384C56.913 35.6384 56.2489 35.5056 55.6568 35.24C55.0702 34.9688 54.5832 34.5981 54.1959 34.1277C53.814 33.6518 53.5567 33.1095 53.4239 32.5007L53.4073 32.4094H55.5074L55.5406 32.4924C55.6457 32.7691 55.7951 33.0126 55.9888 33.2229C56.188 33.4332 56.426 33.5964 56.7027 33.7126C56.9849 33.8233 57.3004 33.8787 57.649 33.8787C58.2798 33.8787 58.7945 33.6933 59.1929 33.3225C59.5969 32.9462 59.8985 32.4454 60.0977 31.8201C60.3025 31.1892 60.4187 30.4919 60.4464 29.7283C60.4519 29.6453 60.4547 29.565 60.4547 29.4875C60.4547 29.4045 60.4547 29.3243 60.4547 29.2468L60.0811 27.2463C60.0811 26.7926 59.976 26.3803 59.7657 26.0095C59.5554 25.6388 59.2704 25.3455 58.9107 25.1296C58.5565 24.9138 58.1553 24.8059 57.7071 24.8059C57.2755 24.8059 56.8798 24.9111 56.5201 25.1213C56.1604 25.3316 55.8726 25.6194 55.6568 25.9846C55.441 26.3443 55.3331 26.7483 55.3331 27.1965V27.2131C55.3331 27.678 55.4354 28.0903 55.6402 28.45C55.845 28.8041 56.1244 29.0836 56.4786 29.2883C56.8327 29.4931 57.2367 29.5955 57.6905 29.5955C58.1443 29.5955 58.551 29.4958 58.9107 29.2966C59.2704 29.0974 59.5554 28.8207 59.7657 28.4666C59.976 28.1124 60.0811 27.7112 60.0811 27.2629V27.2463H60.5792V29.4543H60.2886C60.1448 29.7698 59.9317 30.0631 59.6495 30.3342C59.3672 30.6054 59.0186 30.824 58.6036 30.99C58.1941 31.156 57.7126 31.239 57.1592 31.239C56.3956 31.239 55.7204 31.0675 55.1339 30.7244C54.5473 30.3813 54.0852 29.9109 53.7476 29.3132C53.4156 28.7156 53.2496 28.0404 53.2496 27.2878V27.2712C53.2496 26.4578 53.4377 25.7356 53.814 25.1047C54.1959 24.4683 54.7216 23.9703 55.3912 23.6106C56.0663 23.2454 56.8327 23.0627 57.6905 23.0627ZM66.2486 33.7292C65.8723 33.7292 65.5569 33.6047 65.3023 33.3557C65.0533 33.1012 64.9288 32.7913 64.9288 32.426C64.9288 32.0553 65.0533 31.7454 65.3023 31.4963C65.5569 31.2418 65.8723 31.1145 66.2486 31.1145C66.6304 31.1145 66.9459 31.2418 67.1949 31.4963C67.4439 31.7454 67.5684 32.0553 67.5684 32.426C67.5684 32.7913 67.4439 33.1012 67.1949 33.3557C66.9459 33.6047 66.6304 33.7292 66.2486 33.7292ZM66.2486 27.5701C65.8723 27.5701 65.5569 27.4456 65.3023 27.1965C65.0533 26.942 64.9288 26.6321 64.9288 26.2668C64.9288 25.8961 65.0533 25.5862 65.3023 25.3372C65.5569 25.0826 65.8723 24.9553 66.2486 24.9553C66.6304 24.9553 66.9459 25.0826 67.1949 25.3372C67.4439 25.5862 67.5684 25.8961 67.5684 26.2668C67.5684 26.6321 67.4439 26.942 67.1949 27.1965C66.9459 27.4456 66.6304 27.5701 66.2486 27.5701ZM75.8277 35.3396V33.0403H69.9673V31.2888C70.2828 30.752 70.5982 30.2125 70.9136 29.6702C71.2346 29.1278 71.5583 28.5883 71.8848 28.0515C72.2169 27.5092 72.5461 26.9752 72.8726 26.4495C73.2047 25.9182 73.5339 25.3953 73.8604 24.8806C74.1924 24.3604 74.5245 23.8541 74.8565 23.3616H77.8697V31.2722H79.4883V33.0403H77.8697V35.3396H75.8277ZM71.9595 31.322H75.8609V25.0715H75.7364C75.4929 25.4478 75.2411 25.8352 74.981 26.2336C74.7265 26.6321 74.4691 27.0388 74.209 27.4539C73.949 27.8689 73.6916 28.2867 73.4371 28.7073C73.1825 29.1223 72.9307 29.5401 72.6817 29.9607C72.4327 30.3757 72.192 30.788 71.9595 31.1975V31.322ZM84.4439 35.3396V25.47H84.2945L81.3145 27.5701V25.5613L84.4439 23.3616H86.5772V35.3396H84.4439Z" fill="black"/>
<rect opacity="0.35" x="334" y="23.5" width="24" height="12" rx="3.8" stroke="black"/>
<path opacity="0.4" d="M359.5 27.7811V31.8566C360.305 31.5114 360.828 30.7085 360.828 29.8189C360.828 28.9293 360.305 28.1263 359.5 27.7811Z" fill="black"/>
<rect x="335.5" y="25" width="21" height="9" rx="2.5" fill="black"/>
<path fill-rule="evenodd" clip-rule="evenodd" d="M317.771 26.104C320.258 26.1041 322.65 27.0262 324.452 28.6796C324.588 28.8073 324.805 28.8057 324.939 28.676L326.236 27.4126C326.304 27.3468 326.341 27.2577 326.341 27.165C326.34 27.0724 326.302 26.9837 326.233 26.9187C321.502 22.544 314.038 22.544 309.307 26.9187C309.239 26.9837 309.2 27.0723 309.199 27.165C309.199 27.2577 309.236 27.3468 309.304 27.4126L310.602 28.676C310.735 28.8059 310.952 28.8075 311.088 28.6796C312.891 27.0261 315.283 26.104 317.771 26.104ZM317.767 30.3243C319.124 30.3242 320.433 30.8359 321.439 31.76C321.576 31.8912 321.79 31.8883 321.923 31.7536L323.21 30.4343C323.278 30.3651 323.315 30.2712 323.314 30.1737C323.313 30.0761 323.274 29.9831 323.205 29.9153C320.141 27.0244 315.396 27.0244 312.332 29.9153C312.263 29.9831 312.224 30.0762 312.223 30.1738C312.222 30.2714 312.26 30.3652 312.327 30.4343L313.614 31.7536C313.747 31.8883 313.961 31.8912 314.097 31.76C315.103 30.8365 316.411 30.3248 317.767 30.3243ZM320.292 33.1178C320.294 33.2232 320.256 33.3247 320.189 33.3985L318.012 35.8533C317.949 35.9254 317.862 35.966 317.771 35.966C317.68 35.966 317.593 35.9254 317.529 35.8533L315.352 33.3985C315.285 33.3247 315.248 33.2231 315.25 33.1177C315.252 33.0124 315.293 32.9126 315.363 32.842C316.753 31.5281 318.789 31.5281 320.179 32.842C320.249 32.9127 320.29 33.0125 320.292 33.1178Z" fill="black"/>
<path fill-rule="evenodd" clip-rule="evenodd" d="M301.7 24.682C301.7 24.0489 301.222 23.5358 300.633 23.5358H299.567C298.978 23.5358 298.5 24.0489 298.5 24.682V34.616C298.5 35.249 298.978 35.7622 299.567 35.7622H300.633C301.222 35.7622 301.7 35.249 301.7 34.616V24.682ZM294.266 25.981H295.333C295.922 25.981 296.399 26.5065 296.399 27.1548V34.5884C296.399 35.2367 295.922 35.7622 295.333 35.7622H294.266C293.677 35.7622 293.199 35.2367 293.199 34.5884V27.1548C293.199 26.5065 293.677 25.981 294.266 25.981ZM289.934 28.6301H288.867C288.278 28.6301 287.801 29.1623 287.801 29.8188V34.5735C287.801 35.23 288.278 35.7622 288.867 35.7622H289.934C290.523 35.7622 291.001 35.23 291.001 34.5735V29.8188C291.001 29.1623 290.523 28.6301 289.934 28.6301ZM284.633 31.0754H283.567C282.978 31.0754 282.5 31.6 282.5 32.2471V34.5905C282.5 35.2376 282.978 35.7622 283.567 35.7622H284.633C285.222 35.7622 285.7 35.2376 285.7 34.5905V32.2471C285.7 31.6 285.222 31.0754 284.633 31.0754Z" fill="black"/>
<defs>
<filter id="filter0_d_236_799" x="-4" y="-2" width="401" height="112" filterUnits="userSpaceOnUse" color-interpolation-filters="sRGB">
<feFlood flood-opacity="0" result="BackgroundImageFix"/>
<feColorMatrix in="SourceAlpha" type="matrix" values="0 0 0 0 0 0 0 0 0 0 0 0 0 0 0 0 0 0 127 0" result="hardAlpha"/>
<feOffset dy="2"/>
<feGaussianBlur stdDeviation="2"/>
<feComposite in2="hardAlpha" operator="out"/>
<feColorMatrix type="matrix" values="0 0 0 0 0 0 0 0 0 0 0 0 0 0 0 0 0 0 0.05 0"/>
<feBlend mode="normal" in2="BackgroundImageFix" result="effect1_dropShadow_236_799"/>
<feBlend mode="normal" in="SourceGraphic" in2="effect1_dropShadow_236_799" result="shape"/>
</filter>
<filter id="filter1_d_236_799" x="20" y="463" width="353" height="101" filterUnits="userSpaceOnUse" color-interpolation-filters="sRGB">
<feFlood flood-opacity="0" result="BackgroundImageFix"/>
<feColorMatrix in="SourceAlpha" type="matrix" values="0 0 0 0 0 0 0 0 0 0 0 0 0 0 0 0 0 0 127 0" result="hardAlpha"/>
<feOffset dy="2"/>
<feGaussianBlur stdDeviation="2"/>
<feComposite in2="hardAlpha" operator="out"/>
<feColorMatrix type="matrix" values="0 0 0 0 0 0 0 0 0 0 0 0 0 0 0 0 0 0 0.05 0"/>
<feBlend mode="normal" in2="BackgroundImageFix" result="effect1_dropShadow_236_799"/>
<feBlend mode="normal" in="SourceGraphic" in2="effect1_dropShadow_236_799" result="shape"/>
</filter>
<filter id="filter2_d_236_799" x="18" y="712" width="357" height="52" filterUnits="userSpaceOnUse" color-interpolation-filters="sRGB">
<feFlood flood-opacity="0" result="BackgroundImageFix"/>
<feColorMatrix in="SourceAlpha" type="matrix" values="0 0 0 0 0 0 0 0 0 0 0 0 0 0 0 0 0 0 127 0" result="hardAlpha"/>
<feOffset dy="1"/>
<feGaussianBlur stdDeviation="1"/>
<feComposite in2="hardAlpha" operator="out"/>
<feColorMatrix type="matrix" values="0 0 0 0 0.0627451 0 0 0 0 0.0941176 0 0 0 0 0.156863 0 0 0 0.05 0"/>
<feBlend mode="normal" in2="BackgroundImageFix" result="effect1_dropShadow_236_799"/>
<feBlend mode="normal" in="SourceGraphic" in2="effect1_dropShadow_236_799" result="shape"/>
</filter>
<clipPath id="clip0_236_799">
<rect width="393" height="851" rx="44" fill="white"/>
</clipPath>
</defs>
</svg>
